<?xml version="1.0" encoding="UTF-8"?>
<svg width="210px" height="97px" viewBox="0 0 210 97" version="1.1" xmlns="http://www.w3.org/2000/svg" xmlns:xlink="http://www.w3.org/1999/xlink">
    <!-- Generator: Sketch 43.2 (39069) - http://www.bohemiancoding.com/sketch -->
    <title>Group 6</title>
    <desc>Created with Sketch.</desc>
    <defs></defs>
    <g id="Page-1" stroke="none" stroke-width="1" fill="none" fill-rule="evenodd">
        <g id="Artboard" transform="translate(-467.000000, -674.000000)">
            <g id="Group-6" transform="translate(466.000000, 673.000000)">
                <g id="Group-5" transform="translate(98.000000, 37.000000)" fill="#000000" font-weight="400">
                    <g id="Group-4" transform="translate(0.000000, 5.000000)" font-family="CMUSansSerif, CMU Sans Serif">
                        <text id="L" font-size="40" letter-spacing="1.966667">
                            <tspan x="0.17682275" y="36">L</tspan>
                        </text>
                        <text id="I" font-size="30" letter-spacing="1.47500026">
                            <tspan x="12.0950194" y="30">I</tspan>
                        </text>
                        <text id="T" font-size="30" letter-spacing="1.47500026">
                            <tspan x="19.0671874" y="30">T</tspan>
                        </text>
                    </g>
                    <g id="Group-3" transform="translate(41.000000, 0.000000)" font-size="40" font-family="CMUSerif-Roman, CMU Serif" letter-spacing="1.96666706">
                        <text id="T">
                            <tspan x="0.083072722" y="37">T</tspan>
                        </text>
                        <text id="E">
                            <tspan x="21.4229165" y="46">E</tspan>
                        </text>
                        <text id="X">
                            <tspan x="42.0166665" y="37">X</tspan>
                        </text>
                    </g>
                </g>
                <g id="layer1" fill-rule="nonzero">
                    <g id="g3363" transform="translate(63.111342, 49.185985) scale(-1, 1) rotate(-180.000000) translate(-63.111342, -49.185985) translate(0.510076, 0.587624)">
                        <g id="g3365" transform="translate(0.120390, 0.186662)">
                            <g id="g3367">
                                <g id="g3369">
                                    <g id="g3375" transform="translate(0.000000, -0.000000)" fill="#0015A8">
                                        <path d="M15.505573,90.0092072 C14.9080111,90.0970083 14.2923466,90.1486769 13.6529571,90.1418961 C12.389999,90.1284996 11.0398686,89.917311 9.57722738,89.4534682 C12.1295537,87.3005674 14.2865477,85.7294305 16.1892104,84.5186023 C13.249872,85.4642939 10.0846293,85.5989574 6.36641312,83.8219206 C9.08230564,82.1100252 11.3619586,80.8728485 13.3572143,79.9486801 C10.2466828,80.5261647 7.02130829,80.2630218 3.50101036,77.9249826 C5.8252264,76.8817061 7.8351684,76.0984867 9.61876501,75.5031359 C6.69108733,75.400059 3.79322345,74.4892555 0.957004182,71.7792252 C3.41724176,71.1644336 5.52507137,70.756837 7.37926303,70.4853515 C5.10988421,70.0234895 2.8838079,68.9270396 0.726309635,66.7365524 C2.39789963,66.372758 3.90258275,66.0982185 5.2796275,65.890541 C3.58433773,65.0651639 1.97918272,63.78602 0.512192319,61.8265749 C2.43842875,61.6759309 4.14260593,61.6090246 5.67483373,61.6026501 C3.82089419,60.7386074 2.08545349,59.3733068 0.536900587,57.1819942 C3.28809064,57.0434769 5.58627476,57.0569559 7.56867208,57.1737404 C5.39005833,56.2766191 3.38213333,54.7606554 1.66497171,52.1393214 C5.08416744,52.0890369 7.79211802,52.2544044 10.0632617,52.5374262 C7.24437605,51.766524 4.63500642,50.2164025 2.48816045,46.9390842 C5.25019188,46.8985138 7.5556246,46.9996542 9.53632007,47.18791 C7.11484674,45.8587355 5.03512909,43.8425934 3.66564811,40.4033107 C6.15859893,40.8788803 8.24789733,41.3879855 10.0469366,41.9210521 C8.17295312,40.5473708 6.59780101,38.6179567 5.54297225,35.7172644 C7.21538166,36.0896491 8.69964264,36.4795318 10.0386795,36.8701256 C8.83660965,35.4062242 7.91004958,33.5739507 7.38739407,31.1722305 C9.20345179,31.8459286 10.7743178,32.4988018 12.1712804,33.1378976 C10.8440934,31.5735542 9.8304241,29.5931572 9.33058592,26.9506809 C11.8874505,27.9804975 13.9671681,28.9644104 15.7200685,29.9033085 C14.1131486,28.1730008 12.917634,25.9471494 12.4430083,22.845065 C15.555998,24.2293493 17.9443799,25.5117312 19.8863742,26.7183055 C17.6560748,24.835557 15.9411193,22.3320614 15.3495075,18.4658049 C19.4171692,20.2746504 22.2558467,21.9151825 24.4644634,23.4338763 C23.5159684,21.5015417 23.0132308,19.2389927 23.2540734,16.4175366 C27.1853353,19.4556225 29.6757019,21.9148016 31.528822,24.0808449 C31.4038247,22.6820213 31.5024119,21.160534 31.9158468,19.4777807 C34.7381361,24.3619175 37.5427767,25.7879786 40.4452419,27.4179078 C35.8222114,25.073456 36.5075507,23.3084825 36.5075507,21.2605951 C40.0342778,25.0017117 44.9524839,28.9689817 46.4570409,31.4540015 C44.4457122,28.4113443 43.6269987,25.529953 43.0976619,22.986268 C32.806542,17.5040502 26.5406008,16.0715131 19.5157628,13.8798196 C22.2406057,12.8731136 25.1606566,11.887169 23.9538594,10.487647 L20.7344099,7.25305786 C22.7921926,7.89735988 24.8903784,8.81702037 26.712172,7.559914 C26.53339,5.85970079 24.3999319,5.00130867 22.5787056,4.01015783 C25.7849816,5.17387596 26.4783889,4.9051205 27.3214325,4.63217466 C27.7426392,2.59489017 26.2810379,1.49904343 25.3288872,0.153488384 C33.4050872,6.3389274 43.9432898,11.2256039 51.3645947,13.2661899 C61.8032078,16.8071844 75.2629109,20.4876041 78.9231383,29.4638968 L82.5954678,44.2686213 C86.8868906,48.9469853 90.8342886,53.7985515 92.7069484,59.6949181 C104.656422,62.0236242 114.31912,61.1829459 124.399085,60.9224442 C123.48034,61.0766373 93.6209022,66.1724771 93.6209022,66.1724771 C84.8948495,78.1988554 71.8870807,70.0243212 67.6015828,58.1440981 C66.5199658,55.1455668 60.3492018,55.1446145 58.5610039,58.1523519 C51.490153,73.4865875 30.0166508,89.6988972 11.7432475,95.673992 C12.9467545,93.4889968 14.198556,91.6247875 15.505573,90.0092072 Z" id="path3377"></path>
                                    </g>
                                    <g id="g3379" transform="translate(71.855679, 45.078284)" fill="#FFFFFF">
                                        <path d="M10.3875577,20.4820486 L10.309046,20.3555437 C9.99937319,19.7744085 9.47558312,19.3777259 8.73912544,19.1378587 C8.00266777,18.897985 7.05915228,18.8211234 5.96039072,18.8690524 L5.26963073,18.9006707 L5.77200908,18.4104158 C6.02705262,18.1633233 6.09830319,17.9660709 6.10166906,17.7937131 C6.10545094,17.6213045 6.03163499,17.4351439 5.86619675,17.2244315 C5.53528244,16.8028924 4.8780551,16.3452145 4.26488665,15.8802098 L4.0607787,15.7379084 L4.20208856,15.5323133 C4.71360645,14.7418561 4.94781184,14.1333628 5.0027121,13.6663263 C5.05761236,13.1992645 4.94982884,12.8642503 4.73585019,12.5752414 C4.30777944,11.9970394 3.36813408,11.6052964 2.52225408,11.1204191 L2.36526833,11.0413289 L2.39665791,10.8515621 C2.46939603,10.4069632 2.35045597,10.0436449 2.03559574,9.6813679 C1.72065986,9.31914801 1.19053514,8.97370233 0.481370015,8.66926518 L0.292988378,8.59021946 L0.324377964,8.38461804 C0.465845406,7.43264086 0.749940068,6.60421627 1.34485466,6.07584799 C1.88907318,5.59248815 2.71238168,5.46501819 3.76254612,5.68054318 C3.94561422,4.66571037 4.2080072,3.74281186 4.81434937,3.13450898 C5.42895494,2.51802217 6.40198168,2.33567099 7.70301068,2.67595489 C7.99580366,1.96517828 8.4236475,1.45871424 8.91188792,1.12621427 C9.4479691,0.761156355 10.1484989,0.613902743 10.7247311,0.433595954 L11.0661527,0.803466452 C10.4942004,0.982389147 9.64983944,1.25894125 9.19443832,1.56897191 C8.73908132,1.87901527 8.36910652,2.30431936 8.11118245,3.03960332 L8.03270218,3.29262583 L7.78152246,3.2135801 C6.44368318,2.799444 5.70186785,2.98591572 5.19112525,3.49823359 C4.68046459,4.01048798 4.39327509,4.93654832 4.21779596,6.01258601 L4.17071159,6.29723316 L3.88813598,6.21818743 C2.78546647,5.92837851 2.13447923,6.07660353 1.69023465,6.47120994 C1.27523029,6.83980428 1.02960363,7.49328067 0.889611119,8.30557866 C1.52843331,8.60306359 2.07604922,8.92845262 2.42814205,9.33342704 C2.77205971,9.72908739 2.92097115,10.2175328 2.8991182,10.7250127 C3.67850019,11.1568119 4.61854895,11.5279141 5.1597987,12.2589442 C5.44280292,12.6411509 5.5897919,13.1435579 5.52086088,13.7295756 C5.45820777,14.2627882 5.19899786,14.8788179 4.75162693,15.6114353 C5.3007745,16.0188985 5.89690559,16.4272252 6.27440003,16.9081661 C6.48433837,17.175493 6.64218765,17.4714288 6.63550633,17.8094778 C6.63172445,17.9959114 6.45385013,18.1657423 6.35292442,18.3471474 C7.30797463,18.3345763 8.17812169,18.3979399 8.89617422,18.6317946 C9.65267585,18.8781887 10.2469979,19.32727 10.6387375,19.9443346 C11.7691407,19.9386204 12.939695,19.6881566 14.123927,19.5331698 C15.340431,19.3739228 16.5783657,19.3312064 17.7504957,19.8494416 L17.5307055,20.339633 C16.4936516,19.8811234 15.3858135,19.9001515 14.202464,20.0549922 C13.0191144,20.2098901 11.785844,20.4910516 10.5445057,20.4819852 L10.3875136,20.4819852 L10.3875577,20.4820486 Z" id="path3381"></path>
                                    </g>
                                    <g id="g3383" transform="translate(81.940686, 63.490541)" stroke="#FFFFFF" stroke-width="0.53743664" fill="#FFFFFF">
                                        <path d="M4.69583162,2.26661233 C4.69583162,1.02562621 3.69710072,0.0196185773 2.46509099,0.0196185773 C1.23314429,0.0196185773 0.234413393,1.02562621 0.234413393,2.26661233 C0.234413393,3.50753496 1.23314429,4.51360608 2.46509099,4.51360608 C3.69710072,4.51360608 4.69583162,3.50759845 4.69583162,2.26661233 Z" id="path3385"></path>
                                    </g>
                                    <g id="g3387" transform="translate(88.874129, 60.316014)" fill="#FFFFFF">
                                        <path d="M4.42479705,7.54902537 C2.42210365,4.92477082 1.91854662,5.60253235 0.69933224,5.16260639 L0.495281022,5.08356702 L0.526670608,4.8621882 C0.996089889,2.22631488 2.54694974,1.38881115 3.7572767,0.430675389 L3.82484625,0.643870278 L4.14702442,0.705710066 C2.93367196,1.66613149 1.60598072,2.47963579 1.12322401,4.71983605 C2.01108286,4.93140558 2.85834956,4.66085334 4.74972969,7.1393336 L4.42479074,7.54901902 L4.42479705,7.54902537 Z" id="path3389"></path>
                                    </g>
                                    <g id="g3391" transform="translate(15.757824, 71.109406)" fill="#FFFFFF">
                                        <path d="M0.428612819,14.6853622 C4.21288583,12.3217998 10.4411343,9.88446144 14.4411004,7.33823677 C16.6415861,5.92690553 18.6180584,4.52065353 20.1556439,3.30582551 C21.6932293,2.090934 22.8301879,0.835789487 23.2484005,0.427735777 C23.6666321,0.0196757188 23.9505062,0.212471097 23.6722608,0.74400756 C23.394047,1.27549958 22.0244336,2.50428282 20.4696406,3.73276131 C18.9149106,4.96123979 16.9372407,6.36133321 14.7237076,7.7810452 C10.2966414,10.6204057 5.10071946,13.159202 0.428839732,14.6856416 L0.428612819,14.6853622 Z" id="path3393"></path>
                                    </g>
                                    <g id="g3395" transform="translate(15.127511, 76.188650)" fill="#FFFFFF">
                                        <path d="M0.378187782,15.0917017 C1.96455946,14.7226883 4.30592002,13.3598067 6.90949077,11.9016829 C9.51312456,10.4435592 12.3507935,8.64925296 14.9472418,6.90459638 C17.5438791,5.15993979 19.5459422,3.63299227 21.1463698,2.40292652 C22.6661804,1.09286269 23.416568,0.244565565 23.7073944,0.247105187 C23.7472933,0.239041888 23.7865744,0.238406983 23.8487106,0.247105187 C23.9108595,0.255803391 24.0157057,0.304056203 24.0685007,0.405241078 C24.1212579,0.506343417 24.1008358,0.591319157 24.0841955,0.642422694 C24.0674922,0.69353258 24.0586048,0.72064939 24.0371112,0.753143849 C23.9512436,0.883039148 23.8201826,1.00468702 23.6289205,1.18007965 C23.2463646,1.53086489 22.6143057,2.04672554 21.8078202,2.66658369 C20.1947863,3.9063 17.8508415,5.59692614 15.2456319,7.34742385 C12.6402963,9.09792157 9.78258335,10.9077195 7.16060746,12.3761287 C6.22856367,12.7240188 1.65766008,15.1589191 0.377809594,15.0917461 L0.377746563,15.0917461 L0.378187782,15.0917017 Z" id="path3397"></path>
                                    </g>
                                    <g id="g3399" transform="translate(13.236572, 66.665068)" fill="#FFFFFF">
                                        <path d="M0.100850075,14.5520321 C4.95791576,12.5550641 11.8675326,10.209406 16.4795326,7.28934906 C18.957608,5.70430769 21.1159887,4.12529793 22.7278251,2.82990041 C23.5337432,2.1822334 24.2068544,1.60002513 24.7059362,1.13787748 C25.2049928,0.675659992 25.4864528,0.256120844 25.647876,0.141583907 C25.9856733,-0.0981119336 26.2442529,0.0611286932 26.0874562,0.442078291 C25.9690519,0.729696792 25.5783461,1.05963809 25.0669795,1.53322673 C24.5556129,2.00677094 23.8711498,2.58716972 23.0574787,3.2411223 C21.4301997,4.54890047 19.257574,6.15184617 16.7621019,7.74806187 C11.7712208,10.9403663 5.80474123,13.7470292 0.101039169,14.5523432 L0.100850075,14.5520321 Z" id="path3401"></path>
                                    </g>
                                    <g id="g3403" transform="translate(9.454695, 62.220731)" fill="#FFFFFF">
                                        <path d="M0.144971983,14.5583811 C3.93031652,14.5558415 11.7496641,11.0657665 15.0455706,9.31666553 C20.389553,6.44587721 25.2490769,2.75555299 27.9348405,0.176567196 C28.2326382,-0.109438646 28.6677054,0.142980699 28.3273427,0.540253715 C25.83269,3.45199343 20.6803857,6.88340323 15.2968827,9.77558786 C9.91331656,12.6676455 4.33889169,14.5629652 0.144789192,14.5587113 L0.144971983,14.5583811 Z" id="path3405"></path>
                                    </g>
                                    <g id="g3407" transform="translate(6.933443, 57.776393)" fill="#FFFFFF">
                                        <path d="M0.479037857,13.9806172 C6.1698185,13.1418437 12.9913806,10.8280579 17.9613984,8.32094337 C20.7349645,6.9024377 23.2081235,5.38310904 25.1047353,4.03545881 C27.0011579,2.68780858 28.4013982,1.17051162 28.7469357,0.777886113 C29.0924796,0.385260605 29.5040677,0.368905442 29.1865223,1.06252691 C28.868958,1.75616107 27.3243887,3.11282696 25.4030057,4.47825454 C23.4816226,5.84368213 20.9923276,7.36580437 18.1972678,8.79542089 C12.6067699,11.6545904 6.24023076,13.9039333 0.479170223,13.9806934 L0.479037857,13.9806172 Z" id="path3409"></path>
                                    </g>
                                    <g id="g3411" transform="translate(5.042504, 53.966960)" fill="#FFFFFF">
                                        <path d="M4.24830941,13.5234853 C2.83464349,13.6477173 1.56210463,13.3557306 0.265613885,13.1924837 C5.32211059,13.6697866 12.3928354,11.3308141 17.1063158,9.143057 C22.6585537,6.5211516 27.2688518,2.92149187 29.4774685,0.635324451 C29.8232077,0.277402873 30.0675107,0.733487177 29.8856591,0.967424426 C27.8292,3.61199595 22.9320465,6.98613728 17.3260429,9.63324842 C13.1217924,11.6185976 8.48968539,13.1505609 4.24830941,13.5233774 L4.24830941,13.5234853 Z" id="path3413"></path>
                                    </g>
                                    <g id="g3415" transform="translate(5.672817, 52.062244)" fill="#FFFFFF">
                                        <path d="M0.0252125188,10.8378354 C5.00121826,10.4662951 11.6633112,9.26612706 16.3301484,7.10827403 C21.0236479,4.89702546 24.5853574,2.0298561 26.3773372,0.403037957 C26.6530865,0.152751894 27.1407722,0.330055579 26.7541256,0.782571715 C25.1186526,2.69668456 21.3159114,5.34424013 16.5651165,7.5824087 C11.8145737,9.82051377 6.0439324,11.2540032 0.0250738499,10.8375688 L0.0252125188,10.8378354 Z" id="path3417"></path>
                                    </g>
                                    <g id="g3419" transform="translate(7.563756, 50.792433)" fill="#FFFFFF">
                                        <path d="M2.60319256,7.93631767 C1.55334328,7.97212634 1.06087976,7.77423267 0.0480298483,7.66407023 C3.42530977,7.51413097 8.79236168,6.60936536 11.7560933,5.59592934 C15.6021369,4.25183458 18.7645432,2.22724819 20.5634564,0.64620673 C20.9107903,0.340912462 21.1697229,0.750496293 20.9402386,1.00995039 C19.2555381,2.91428569 15.8315519,4.73805149 11.928654,6.1019553 C9.0016697,7.12485141 5.75278453,7.82902501 2.60317365,7.93632402 L2.60319256,7.93631767 Z" id="path3421"></path>
                                    </g>
                                    <g id="g3423" transform="translate(9.454695, 48.887717)" fill="#FFFFFF">
                                        <path d="M0.567281673,4.90781885 C7.78688643,4.41710045 12.1524341,3.13579784 15.4987656,0.116314672 C15.7495104,-0.109940221 16.1453407,0.201480884 15.8755541,0.495842081 C12.441483,4.24349827 5.68024181,5.28779069 0.567143004,4.9077998 L0.567281673,4.90781885 Z" id="path3425"></path>
                                    </g>
                                    <g id="g3427" transform="translate(9.454695, 46.348095)" fill="#FFFFFF">
                                        <path d="M6.12664206,3.07929126 C3.93806937,3.25660129 2.10675807,2.77485411 0.112195709,2.10585428 C5.94920896,3.04297467 8.37622905,2.59361401 12.7985048,0.501702258 C13.3026481,0.263257181 13.2730549,0.825053236 13.0497035,0.960326184 C10.700464,2.38270478 8.31485548,2.90205741 6.12634582,3.079323 L6.12664206,3.07929126 Z" id="path3429"></path>
                                    </g>
                                    <g id="g3431" transform="translate(10.085008, 43.173568)" fill="#FFFFFF">
                                        <path d="M5.28832581,2.15867841 C3.21907137,1.97385744 1.46201093,1.25812857 0.013362635,0.071299878 C5.79371075,2.31550004 7.39117594,1.86897107 11.8121911,0.60653784 C12.3935981,0.440510074 12.2129378,1.00463623 11.9848654,1.09679275 C9.33767694,2.16584649 7.35780087,2.34349302 5.28842036,2.15873555 L5.28832581,2.15867841 Z" id="path3433"></path>
                                    </g>
                                    <g id="g3435" transform="translate(9.454695, 38.094325)" fill="#FFFFFF">
                                        <path d="M17.3714254,3.63165897 C14.2874301,3.96755568 10.813019,3.59083455 7.76356485,3.03074004 C4.71429979,2.47065823 2.09175662,1.33268551 0.61140358,0.119825699 C5.68132595,2.27666288 6.60530173,2.27202807 7.85811179,2.50891128 C10.8622464,3.06069488 13.840097,3.27587702 17.3405401,3.10983021 C17.6579468,3.09471946 17.6417226,3.60225015 17.3719297,3.63165262 L17.3714254,3.63165897 Z" id="path3437"></path>
                                    </g>
                                    <g id="g3439" transform="translate(11.975946, 34.284892)" fill="#FFFFFF">
                                        <path d="M16.6402624,4.92686601 C13.2980909,5.05403757 9.8461189,4.22091468 6.85969605,3.36131624 C3.87352532,2.50165431 1.65702977,1.32860307 0.195397021,0.131107968 C3.15288851,1.56408949 5.90502402,2.53409798 7.00088615,2.85529663 C9.94533016,3.70295884 12.91568,4.43678252 16.671778,4.38922811 C16.9635562,4.38541867 17.1521522,4.90739346 16.6403885,4.92689141 L16.6402624,4.92686601 Z" id="path3441"></path>
                                    </g>
                                    <g id="g3443" transform="translate(15.757824, 31.110365)" fill="#FFFFFF">
                                        <path d="M15.5876397,6.03160143 C12.4398568,5.56347297 9.13953806,4.62700018 6.26215935,3.64378566 C3.3850958,2.66050765 1.33714593,1.49278961 0.00119759464,0.0947913783 C3.4233558,2.0734741 5.3054073,2.76729874 6.41904425,3.1535117 C9.26081027,4.12472651 11.9143018,4.80058332 15.6814933,5.50977267 C16.1336294,5.59488809 15.7705187,6.05887697 15.5872994,6.03159508 L15.5876397,6.03160143 Z" id="path3445"></path>
                                    </g>
                                    <g id="g3447" transform="translate(19.539702, 27.935838)" fill="#FFFFFF">
                                        <path d="M13.4067569,6.56492198 C7.09417247,5.55205737 3.0034413,2.80869457 0.403400301,0.0882518525 C4.43286505,3.14627378 7.23599289,4.78972644 13.5164313,6.04328369 C13.9139445,6.12262782 13.7938888,6.62729509 13.4065489,6.56515689 L13.4067569,6.56492198 Z" id="path3449"></path>
                                    </g>
                                    <g id="g3451" transform="translate(23.951893, 24.126406)" fill="#FFFFFF">
                                        <path d="M12.0704934,8.05060065 C5.72135082,7.06548141 2.05986278,3.1777016 0.535135711,0.611413913 C4.5521833,4.65353923 7.6784726,6.853423 12.1801678,7.5287084 C12.6357643,7.59701787 12.5195094,8.12025612 12.0702917,8.05053081 L12.0704934,8.05060065 Z" id="path3453"></path>
                                    </g>
                                    <g id="g3455" transform="translate(31.515648, 25.396217)" fill="#FFFFFF">
                                        <path d="M6.42288916,4.75544155 C5.43266748,4.63090485 4.08518442,3.92454083 2.81207828,3.11084606 C1.53897215,2.29715128 0.578375181,1.30707978 0.00554675413,0.0314913085 C1.53909821,1.6257388 2.15302304,2.05709354 3.09464759,2.66806302 C4.3169505,3.44931413 5.5487081,3.94136583 6.5484475,4.23361279 C7.01711041,4.37060633 6.66293755,4.7856567 6.42284504,4.75544155 L6.42288916,4.75544155 Z" id="path3457"></path>
                                    </g>
                                    <g id="g3459" transform="translate(81.940686, 63.490541)" stroke="#FFFFFF" stroke-width="0.53743664" fill="#FFFFFF">
                                        <path d="M4.69583162,2.26661233 C4.69583162,1.02562621 3.69710072,0.0196185773 2.46509099,0.0196185773 C1.23314429,0.0196185773 0.234413393,1.02562621 0.234413393,2.26661233 C0.234413393,3.50753496 1.23314429,4.51360608 2.46509099,4.51360608 C3.69710072,4.51360608 4.69583162,3.50759845 4.69583162,2.26661233 Z" id="path3461"></path>
                                    </g>
                                    <g id="g3463" transform="translate(81.940686, 63.490541)" stroke="#FFFFFF" stroke-width="0.53743664" fill="#990200">
                                        <path d="M4.69583162,2.26661233 C4.69583162,1.02562621 3.69710072,0.0196185773 2.46509099,0.0196185773 C1.23314429,0.0196185773 0.234413393,1.02562621 0.234413393,2.26661233 C0.234413393,3.50753496 1.23314429,4.51360608 2.46509099,4.51360608 C3.69710072,4.51360608 4.69583162,3.50759845 4.69583162,2.26661233 Z" id="path3465"></path>
                                    </g>
                                </g>
                            </g>
                        </g>
                    </g>
                </g>
            </g>
        </g>
    </g>
</svg>